<?xml version="1.0" encoding="UTF-8" standalone="no"?>
<!DOCTYPE svg PUBLIC "-//W3C//DTD SVG 1.1//EN"
 "http://www.w3.org/Graphics/SVG/1.1/DTD/svg11.dtd">
<!-- Generated by graphviz version 9.0.0 (20230911.1827)
 -->
<!-- Pages: 1 -->
<svg width="839pt" height="374pt"
 viewBox="0.00 0.00 839.12 374.32" xmlns="http://www.w3.org/2000/svg" xmlns:xlink="http://www.w3.org/1999/xlink">
<g id="graph0" class="graph" transform="scale(1 1) rotate(0) translate(14.4 359.92)">
<polygon fill="white" stroke="none" points="-14.4,14.4 -14.4,-359.92 824.72,-359.92 824.72,14.4 -14.4,14.4"/>
<text text-anchor="start" x="8" y="-322.52" font-family="Times,serif" font-size="20.00">ShoppingCart &#45; Datamodel (Draft v0.1)</text>
<!-- Basket -->
<g id="node1" class="node">
<title>Basket</title>
<path fill="cyan" stroke="black" d="M12,-72.37C12,-72.37 148.58,-72.37 148.58,-72.37 154.58,-72.37 160.58,-78.37 160.58,-84.37 160.58,-84.37 160.58,-203.27 160.58,-203.27 160.58,-209.27 154.58,-215.27 148.58,-215.27 148.58,-215.27 12,-215.27 12,-215.27 6,-215.27 0,-209.27 0,-203.27 0,-203.27 0,-84.38 0,-84.38 0,-78.38 6,-72.37 12,-72.37"/>
<text text-anchor="start" x="58.16" y="-199.37" font-family="Helvetica bold" font-weight="bold" font-size="14.00">Basket</text>
<polyline fill="none" stroke="black" points="0,-193.07 160.58,-193.07"/>
<text text-anchor="start" x="9.04" y="-174.07" font-family="Times,serif" font-size="12.00">*id</text>
<text text-anchor="start" x="9.04" y="-156.82" font-family="Times,serif" font-size="12.00">user_id</text>
<text text-anchor="start" x="43.54" y="-156.82" font-family="Arial Italic" font-size="10.00" fill="#999999"> unsigned int, nullable</text>
<text text-anchor="start" x="9.04" y="-138.57" font-family="Times,serif" font-size="12.00">guest_id</text>
<text text-anchor="start" x="48.79" y="-138.57" font-family="Arial Italic" font-size="10.00" fill="#999999"> unsigned int, nullable</text>
<text text-anchor="start" x="9.04" y="-120.32" font-family="Times,serif" font-size="12.00">status</text>
<text text-anchor="start" x="35.29" y="-120.32" font-family="Arial Italic" font-size="10.00" fill="#999999"> enum, default: pending</text>
<text text-anchor="start" x="9.04" y="-102.07" font-family="Times,serif" font-size="12.00">created_at</text>
<text text-anchor="start" x="57.04" y="-102.07" font-family="Arial Italic" font-size="10.00" fill="#999999"> datetime_immutable</text>
<text text-anchor="start" x="9.04" y="-83.82" font-family="Times,serif" font-size="12.00">updated_at</text>
<text text-anchor="start" x="60.79" y="-83.82" font-family="Arial Italic" font-size="10.00" fill="#999999"> datetime_immutable</text>
</g>
<!-- BasketItem -->
<g id="node2" class="node">
<title>BasketItem</title>
<path fill="cyan" stroke="black" d="M208.58,-162.5C208.58,-162.5 345.16,-162.5 345.16,-162.5 351.16,-162.5 357.16,-168.5 357.16,-174.5 357.16,-174.5 357.16,-275.15 357.16,-275.15 357.16,-281.15 351.16,-287.15 345.16,-287.15 345.16,-287.15 208.58,-287.15 208.58,-287.15 202.58,-287.15 196.58,-281.15 196.58,-275.15 196.58,-275.15 196.58,-174.5 196.58,-174.5 196.58,-168.5 202.58,-162.5 208.58,-162.5"/>
<text text-anchor="start" x="240.5" y="-271.25" font-family="Helvetica bold" font-weight="bold" font-size="14.00">BasketItem</text>
<polyline fill="none" stroke="black" points="196.58,-264.95 357.16,-264.95"/>
<text text-anchor="start" x="205.62" y="-245.95" font-family="Times,serif" font-size="12.00">*product_id</text>
<text text-anchor="start" x="205.62" y="-227.7" font-family="Times,serif" font-size="12.00">*basket_id</text>
<text text-anchor="start" x="205.62" y="-210.45" font-family="Times,serif" font-size="12.00">quantity</text>
<text text-anchor="start" x="243.87" y="-210.45" font-family="Arial Italic" font-size="10.00" fill="#999999"> unsigned int, not null</text>
<text text-anchor="start" x="205.62" y="-192.2" font-family="Times,serif" font-size="12.00">created_at</text>
<text text-anchor="start" x="253.62" y="-192.2" font-family="Arial Italic" font-size="10.00" fill="#999999"> datetime_immutable</text>
<text text-anchor="start" x="205.62" y="-173.95" font-family="Times,serif" font-size="12.00">updated_at</text>
<text text-anchor="start" x="257.37" y="-173.95" font-family="Arial Italic" font-size="10.00" fill="#999999"> datetime_immutable</text>
</g>
<!-- Basket&#45;&#45;BasketItem -->
<g id="edge1" class="edge">
<title>Basket&#45;&#45;BasketItem</title>
<path fill="none" stroke="black" d="M169.23,-180.43C175.43,-183.01 181.68,-185.62 187.88,-188.2"/>
<polyline fill="none" stroke="black" points="160.99,-177 165.15,-178.73"/>
<polygon fill="black" stroke="black" points="164.25,-183.23 167.71,-174.93 169.37,-175.62 165.91,-183.93 164.25,-183.23"/>
<polyline fill="none" stroke="black" points="165.15,-178.73 169.3,-180.46"/>
<polygon fill="black" stroke="black" points="187.67,-188.11 194.42,-195.31 192.13,-189.97 195.67,-191.44 195.67,-191.44 195.67,-191.44 192.13,-189.97 197.54,-187.83 187.67,-188.11"/>
<text text-anchor="start" x="175.36" y="-172.75" font-family="Times,serif" font-size="12.00">0..N</text>
<text text-anchor="start" x="168.42" y="-187.4" font-family="Times,serif" font-size="12.00">1</text>
</g>
<!-- User -->
<g id="node5" class="node">
<title>User</title>
<path fill="orange" stroke="black" d="M208.58,-0.5C208.58,-0.5 345.16,-0.5 345.16,-0.5 351.16,-0.5 357.16,-6.5 357.16,-12.5 357.16,-12.5 357.16,-113.15 357.16,-113.15 357.16,-119.15 351.16,-125.15 345.16,-125.15 345.16,-125.15 208.58,-125.15 208.58,-125.15 202.58,-125.15 196.58,-119.15 196.58,-113.15 196.58,-113.15 196.58,-12.5 196.58,-12.5 196.58,-6.5 202.58,-0.5 208.58,-0.5"/>
<text text-anchor="start" x="261.87" y="-109.25" font-family="Helvetica bold" font-weight="bold" font-size="14.00">User</text>
<polyline fill="none" stroke="black" points="196.58,-102.95 357.16,-102.95"/>
<text text-anchor="start" x="205.62" y="-83.95" font-family="Times,serif" font-size="12.00">*id</text>
<text text-anchor="start" x="205.62" y="-65.7" font-family="Times,serif" font-size="12.00">username</text>
<text text-anchor="start" x="205.62" y="-47.45" font-family="Times,serif" font-size="12.00">password</text>
<text text-anchor="start" x="205.62" y="-30.2" font-family="Times,serif" font-size="12.00">created_at</text>
<text text-anchor="start" x="253.62" y="-30.2" font-family="Arial Italic" font-size="10.00" fill="#999999"> datetime_immutable</text>
<text text-anchor="start" x="205.62" y="-11.95" font-family="Times,serif" font-size="12.00">updated_at</text>
<text text-anchor="start" x="257.37" y="-11.95" font-family="Arial Italic" font-size="10.00" fill="#999999"> datetime_immutable</text>
</g>
<!-- Basket&#45;&#45;User -->
<g id="edge4" class="edge">
<title>Basket&#45;&#45;User</title>
<path fill="none" stroke="black" d="M169.23,-107.22C175.43,-104.64 181.68,-102.03 187.88,-99.45"/>
<polyline fill="none" stroke="black" points="160.99,-110.65 165.15,-108.92"/>
<polygon fill="black" stroke="black" points="167.71,-112.72 164.25,-104.42 165.91,-103.72 169.37,-112.03 167.71,-112.72"/>
<polyline fill="none" stroke="black" points="165.15,-108.92 169.3,-107.19"/>
<polygon fill="black" stroke="black" points="187.67,-99.54 197.54,-99.82 192.13,-97.68 195.67,-96.21 195.67,-96.21 195.67,-96.21 192.13,-97.68 194.42,-92.34 187.67,-99.54"/>
<text text-anchor="start" x="168.03" y="-88.74" font-family="Times,serif" font-size="12.00">0..N</text>
<text text-anchor="start" x="175.75" y="-109.31" font-family="Times,serif" font-size="12.00">1</text>
</g>
<!-- Product -->
<g id="node3" class="node">
<title>Product</title>
<path fill="lightgreen" stroke="black" d="M405.16,-162.5C405.16,-162.5 576.24,-162.5 576.24,-162.5 582.24,-162.5 588.24,-168.5 588.24,-174.5 588.24,-174.5 588.24,-275.15 588.24,-275.15 588.24,-281.15 582.24,-287.15 576.24,-287.15 576.24,-287.15 405.16,-287.15 405.16,-287.15 399.16,-287.15 393.16,-281.15 393.16,-275.15 393.16,-275.15 393.16,-174.5 393.16,-174.5 393.16,-168.5 399.16,-162.5 405.16,-162.5"/>
<text text-anchor="start" x="465.2" y="-271.25" font-family="Helvetica bold" font-weight="bold" font-size="14.00">Product</text>
<polyline fill="none" stroke="black" points="393.16,-264.95 588.24,-264.95"/>
<text text-anchor="start" x="402.2" y="-245.95" font-family="Times,serif" font-size="12.00">*id</text>
<text text-anchor="start" x="402.2" y="-228.7" font-family="Times,serif" font-size="12.00">stock_quantity</text>
<text text-anchor="start" x="471.2" y="-228.7" font-family="Arial Italic" font-size="10.00" fill="#999999"> unsigned int, not null</text>
<text text-anchor="start" x="402.2" y="-210.45" font-family="Times,serif" font-size="12.00">reserved_quantity</text>
<text text-anchor="start" x="486.2" y="-210.45" font-family="Arial Italic" font-size="10.00" fill="#999999"> unsigned int, not null</text>
<text text-anchor="start" x="402.2" y="-192.2" font-family="Times,serif" font-size="12.00">created_at</text>
<text text-anchor="start" x="450.2" y="-192.2" font-family="Arial Italic" font-size="10.00" fill="#999999"> datetime_immutable</text>
<text text-anchor="start" x="402.2" y="-173.95" font-family="Times,serif" font-size="12.00">updated_at</text>
<text text-anchor="start" x="453.95" y="-173.95" font-family="Arial Italic" font-size="10.00" fill="#999999"> datetime_immutable</text>
</g>
<!-- BasketItem&#45;&#45;Product -->
<g id="edge2" class="edge">
<title>BasketItem&#45;&#45;Product</title>
<path fill="none" stroke="black" d="M366.62,-224.82C372.44,-224.82 378.34,-224.82 384.23,-224.82"/>
<polyline fill="none" stroke="black" points="357.65,-224.82 362.15,-224.83"/>
<polygon fill="black" stroke="black" points="363.05,-229.33 363.05,-220.33 364.85,-220.33 364.85,-229.33 363.05,-229.33"/>
<polyline fill="none" stroke="black" points="362.15,-224.83 366.65,-224.83"/>
<polyline fill="none" stroke="black" points="392.86,-224.82 388.36,-224.83"/>
<polygon fill="black" stroke="black" points="387.46,-220.33 387.46,-229.33 385.66,-229.33 385.66,-220.33 387.46,-220.33"/>
<polyline fill="none" stroke="black" points="388.36,-224.83 383.86,-224.83"/>
<text text-anchor="start" x="374.59" y="-211.01" font-family="Times,serif" font-size="12.00">1</text>
<text text-anchor="start" x="369.92" y="-230.09" font-family="Times,serif" font-size="12.00">1</text>
</g>
<!-- ProductPrice -->
<g id="node4" class="node">
<title>ProductPrice</title>
<path fill="lightgreen" stroke="black" d="M636.24,-135.12C636.24,-135.12 798.32,-135.12 798.32,-135.12 804.32,-135.12 810.32,-141.12 810.32,-147.12 810.32,-147.12 810.32,-302.52 810.32,-302.52 810.32,-308.52 804.32,-314.52 798.32,-314.52 798.32,-314.52 636.24,-314.52 636.24,-314.52 630.24,-314.52 624.24,-308.52 624.24,-302.52 624.24,-302.52 624.24,-147.12 624.24,-147.12 624.24,-141.12 630.24,-135.12 636.24,-135.12"/>
<text text-anchor="start" x="675.28" y="-298.62" font-family="Helvetica bold" font-weight="bold" font-size="14.00">ProductPrice</text>
<polyline fill="none" stroke="black" points="624.24,-292.32 810.32,-292.32"/>
<text text-anchor="start" x="633.28" y="-273.32" font-family="Times,serif" font-size="12.00">*id</text>
<text text-anchor="start" x="633.28" y="-255.07" font-family="Times,serif" font-size="12.00">*product_id</text>
<text text-anchor="start" x="633.28" y="-237.82" font-family="Times,serif" font-size="12.00">amount</text>
<text text-anchor="start" x="668.53" y="-237.82" font-family="Arial Italic" font-size="10.00" fill="#999999"> unsigned int, not null</text>
<text text-anchor="start" x="633.28" y="-219.57" font-family="Times,serif" font-size="12.00">currency</text>
<text text-anchor="start" x="674.53" y="-219.57" font-family="Arial Italic" font-size="10.00" fill="#999999"> string</text>
<text text-anchor="start" x="633.28" y="-201.32" font-family="Times,serif" font-size="12.00">price_timestamp</text>
<text text-anchor="start" x="710.53" y="-201.32" font-family="Arial Italic" font-size="10.00" fill="#999999"> datetime_immutable</text>
<text text-anchor="start" x="633.28" y="-183.07" font-family="Times,serif" font-size="12.00">vat</text>
<text text-anchor="start" x="647.53" y="-183.07" font-family="Arial Italic" font-size="10.00" fill="#999999"> integer</text>
<text text-anchor="start" x="633.28" y="-164.82" font-family="Times,serif" font-size="12.00">created_at</text>
<text text-anchor="start" x="681.28" y="-164.82" font-family="Arial Italic" font-size="10.00" fill="#999999"> datetime_immutable</text>
<text text-anchor="start" x="633.28" y="-146.57" font-family="Times,serif" font-size="12.00">updated_at</text>
<text text-anchor="start" x="685.03" y="-146.57" font-family="Arial Italic" font-size="10.00" fill="#999999"> datetime_immutable</text>
</g>
<!-- Product&#45;&#45;ProductPrice -->
<g id="edge3" class="edge">
<title>Product&#45;&#45;ProductPrice</title>
<path fill="none" stroke="black" d="M597.42,-224.82C601.72,-224.82 606.03,-224.82 610.33,-224.82"/>
<polyline fill="none" stroke="black" points="588.57,-224.82 593.07,-224.83"/>
<polygon fill="black" stroke="black" points="593.97,-229.33 593.97,-220.33 595.77,-220.33 595.77,-229.33 593.97,-229.33"/>
<polyline fill="none" stroke="black" points="593.07,-224.83 597.57,-224.83"/>
<polygon fill="black" stroke="black" points="614.66,-224.83 623.66,-228.88 619.49,-224.83 623.32,-224.83 623.32,-224.83 623.32,-224.83 619.49,-224.83 623.66,-220.78 614.66,-224.83"/>
<polygon fill="black" stroke="black" points="612.54,-220.33 612.54,-229.33 610.74,-229.33 610.74,-220.33 612.54,-220.33"/>
<polyline fill="none" stroke="black" points="613.44,-224.83 608.94,-224.83"/>
<text text-anchor="start" x="598.23" y="-211.01" font-family="Times,serif" font-size="12.00">1..N</text>
<text text-anchor="start" x="600.84" y="-230.09" font-family="Times,serif" font-size="12.00">1</text>
</g>
</g>
</svg>
